<svg width="499" height="356" viewBox="0 0 499 356" fill="none" xmlns="http://www.w3.org/2000/svg">
<g clip-path="url(#clip0_159_1311)">
<path fill-rule="evenodd" clip-rule="evenodd" d="M83.8372 138.423C77.6061 144.654 77.4197 154.569 77.4142 174.032C94.856 174.032 105.746 166.544 115.298 159.976C122.76 154.845 129.406 150.275 137.722 150.275C150.099 150.275 160.907 159.026 166.637 163.667C167.445 164.321 168.152 164.894 168.749 165.348C168.568 151.472 167.595 143.651 162.367 138.423C155.944 132 145.606 132 124.929 132L121.274 132C100.598 132 90.2604 132 83.8372 138.423ZM118.588 223.376C119.464 223.376 120.359 223.376 121.275 223.376H124.929C125.845 223.376 126.74 223.376 127.616 223.376H118.588Z" fill="#0077FF"/>
<path fill-rule="evenodd" clip-rule="evenodd" d="M77.4142 174.032C94.8561 174.032 105.746 166.544 115.298 159.976C122.76 154.845 129.406 150.275 137.722 150.275C150.1 150.275 160.907 159.026 166.637 163.667C167.445 164.321 168.152 164.894 168.749 165.348C168.79 168.522 168.79 172.012 168.79 175.861V179.516C168.79 200.192 168.79 210.53 162.367 216.953C156.228 223.092 146.513 223.363 127.615 223.376H118.589C99.6909 223.363 89.9761 223.092 83.8373 216.953C77.4141 210.53 77.4141 200.192 77.4141 179.516L77.4141 175.861C77.4141 175.242 77.4141 174.633 77.4142 174.032Z" fill="#00AEEF"/>
<path d="M148.231 178.579C148.231 176.321 150.085 174.49 152.343 174.49C154.601 174.49 156.455 176.321 156.455 178.579V195.072C156.455 197.331 154.601 199.162 152.343 199.162C150.085 199.162 148.231 197.331 148.231 195.072V178.579Z" fill="white"/>
<path d="M133.611 168.071C133.611 165.813 135.465 163.982 137.723 163.982C139.982 163.982 141.835 165.813 141.835 168.071V205.581C141.835 207.839 139.982 209.67 137.723 209.67C135.465 209.67 133.611 207.839 133.611 205.581V168.071Z" fill="white"/>
<path d="M118.991 178.579C118.991 176.321 120.845 174.49 123.103 174.49C125.361 174.49 127.215 176.321 127.215 178.579V195.072C127.215 197.331 125.361 199.162 123.103 199.162C120.845 199.162 118.991 197.331 118.991 195.072V178.579Z" fill="white"/>
<path d="M104.369 184.518C104.369 182.26 106.223 180.429 108.481 180.429C110.739 180.429 112.593 182.26 112.593 184.518V189.133C112.593 191.391 110.739 193.222 108.481 193.222C106.223 193.222 104.369 191.391 104.369 189.133V184.518Z" fill="white"/>
<path d="M89.7489 184.518C89.7489 182.26 91.6025 180.429 93.8608 180.429C96.1192 180.429 97.9727 182.26 97.9727 184.518V189.133C97.9727 191.391 96.1192 193.222 93.8608 193.222C91.6025 193.222 89.7489 191.391 89.7489 189.133V184.518Z" fill="white"/>
</g>
<path d="M295.19 88.3091C290.934 125.404 282.073 132.445 244.977 128.191C207.884 123.934 200.847 115.072 205.098 77.9765C209.354 40.8813 218.217 33.8439 255.311 38.1002C292.406 42.353 299.446 51.214 295.19 88.3091Z" fill="url(#paint0_linear_159_1311)"/>
<path d="M265.683 61.2261C261.943 61.2261 258.951 62.709 255.959 67.0769L244.324 84.4631L245.404 70.9489C245.737 65.8403 242.496 61.2261 236.76 61.2261C231.44 61.2261 228.116 64.7697 227.783 69.302L225.955 94.1875C225.539 100.368 228.78 103.91 233.933 103.91C239.085 103.91 242.327 100.202 244.738 96.8229L255.958 79.931L254.961 94.1857C254.462 99.9544 257.621 103.908 263.355 103.908C268.675 103.908 272.164 100.777 272.497 96.0808L274.326 70.9489C274.741 66.0045 272.333 61.2261 265.683 61.2261Z" fill="url(#paint1_linear_159_1311)"/>
<path d="M245.507 70.9487L244.421 84.4631L244.838 96.8229C242.413 100.202 239.155 103.91 233.975 103.91C228.795 103.91 225.537 100.368 225.955 94.1875L227.793 69.3018C228.128 64.7697 231.469 61.2261 236.817 61.2261C242.583 61.2261 245.842 65.8403 245.507 70.9487Z" fill="url(#paint2_linear_159_1311)"/>
<path d="M245.53 70.2049C245.53 65.5139 242.317 61.2261 236.409 61.2261C230.5 61.2261 227.072 65.4084 227.072 69.9191C227.072 74.7583 230.918 78.5304 236.304 78.5304C241.69 78.5304 245.53 75.0426 245.53 70.2049Z" fill="white"/>
<g clip-path="url(#clip1_159_1311)">
<path d="M375.145 224.29C400.63 224.29 421.29 203.63 421.29 178.145C421.29 152.66 400.63 132 375.145 132C349.66 132 329 152.66 329 178.145C329 203.63 349.66 224.29 375.145 224.29Z" fill="white"/>
<path fill-rule="evenodd" clip-rule="evenodd" d="M378.837 205.832L387.835 178.145H421.29C421.29 190.383 416.428 202.121 407.774 210.774C399.121 219.428 387.383 224.29 375.145 224.29C362.907 224.29 351.169 219.428 342.515 210.774C333.862 202.121 329 190.383 329 178.145C329 165.907 333.862 154.169 342.515 145.516C351.169 136.862 362.907 132 375.145 132C379.987 132 384.798 132.76 389.404 134.253L378.891 166.609H348.181L344.428 178.145H375.145L366.147 205.832H378.837ZM391.58 166.609L400.386 139.522C410.016 145.814 416.952 155.473 419.836 166.609H391.58Z" fill="url(#paint3_linear_159_1311)"/>
</g>
<g clip-path="url(#clip2_159_1311)">
<path d="M205.898 236.321C205.349 236.321 205.192 236.663 205.589 237.041C207.724 239.184 209.068 242.133 209.068 245.39C209.068 248.648 207.744 251.597 205.605 253.723C205.192 254.134 205.333 254.46 206.107 254.46H252.015C254.615 252.3 256.285 249.025 256.285 245.373C256.285 241.721 254.615 238.464 252.015 236.286H205.918L205.898 236.321Z" fill="#0A1E78"/>
<path d="M205.898 263.617C205.349 263.617 205.192 263.96 205.589 264.337C207.724 266.48 209.068 269.43 209.068 272.687C209.068 275.945 207.744 278.894 205.605 281.02C205.192 281.431 205.333 281.757 206.107 281.757H234.115C236.715 279.597 238.388 276.322 238.388 272.67C238.388 269.018 236.715 265.761 234.115 263.583H205.918L205.898 263.617Z" fill="#0A1E78"/>
<path d="M205.898 290.91C205.312 290.91 205.171 291.236 205.605 291.648C207.739 293.791 209.068 296.722 209.068 299.997C209.068 303.272 207.739 306.204 205.605 308.33C205.191 308.741 205.328 309.067 206.102 309.067H216.23C218.834 306.907 220.504 303.632 220.504 299.98C220.504 296.328 218.834 293.071 216.23 290.893H205.914L205.898 290.91Z" fill="#0A1E78"/>
<path d="M288.959 236.322H276.644C279.244 238.499 280.914 241.739 280.914 245.409C280.914 249.078 279.244 252.318 276.644 254.495H288.959C291.559 252.335 293.232 249.078 293.232 245.409C293.232 241.739 291.559 238.499 288.959 236.322Z" fill="#00AEEF"/>
<path d="M276.628 236.322H264.31C266.914 238.499 268.583 241.739 268.583 245.409C268.583 249.078 266.914 252.318 264.31 254.495H276.628C279.228 252.335 280.898 249.078 280.898 245.409C280.898 241.739 279.228 238.499 276.628 236.322Z" fill="#6262D9"/>
<path d="M288.959 263.616H258.748C261.348 265.794 263.017 269.034 263.017 272.703C263.017 276.372 261.348 279.613 258.748 281.79H288.959C291.563 279.63 293.232 276.372 293.232 272.703C293.232 269.034 291.563 265.794 288.959 263.616Z" fill="#00AEEF"/>
<path d="M258.748 263.616H246.429C249.029 265.794 250.703 269.034 250.703 272.703C250.703 276.372 249.029 279.613 246.429 281.79H258.748C261.348 279.63 263.017 276.372 263.017 272.703C263.017 269.034 261.348 265.794 258.748 263.616Z" fill="#6262D9"/>
<path d="M264.309 236.322H251.994C254.595 238.499 256.268 241.739 256.268 245.409C256.268 249.078 254.595 252.318 251.994 254.495H264.309C266.913 252.335 268.583 249.078 268.583 245.409C268.583 241.739 266.913 238.499 264.309 236.322Z" fill="#3D3DC7"/>
<path d="M246.413 263.616H234.098C236.699 265.794 238.372 269.034 238.372 272.703C238.372 276.372 236.699 279.613 234.098 281.79H246.413C249.017 279.63 250.686 276.372 250.686 272.703C250.686 269.034 249.017 265.794 246.413 263.616Z" fill="#3D3DC7"/>
<path d="M288.959 290.911H240.868C243.468 293.088 245.137 296.329 245.137 299.998C245.137 303.667 243.468 306.907 240.868 309.085H288.959C291.563 306.924 293.232 303.667 293.232 299.998C293.232 296.329 291.563 293.088 288.959 290.911Z" fill="#00AEEF"/>
<path d="M240.852 290.911H228.533C231.133 293.088 232.807 296.329 232.807 299.998C232.807 303.667 231.133 306.907 228.533 309.085H240.852C243.452 306.924 245.121 303.667 245.121 299.998C245.121 296.329 243.452 293.088 240.852 290.911Z" fill="#6262D9"/>
<path d="M228.533 290.911H216.218C218.818 293.088 220.491 296.329 220.491 299.998C220.491 303.667 218.818 306.907 216.218 309.085H228.533C231.137 306.924 232.806 303.667 232.806 299.998C232.806 296.329 231.137 293.088 228.533 290.911Z" fill="#3D3DC7"/>
</g>
<g filter="url(#filter0_f_159_1311)">
<path d="M7 7L492 349" stroke="#434C5D" stroke-width="12" stroke-linecap="round"/>
</g>
<g filter="url(#filter1_f_159_1311)">
<path d="M492 7L6.99999 349" stroke="#434C5D" stroke-width="12" stroke-linecap="round"/>
</g>
<defs>
<filter id="filter0_f_159_1311" x="0.499503" y="0.499512" width="498.001" height="355.001" filterUnits="userSpaceOnUse" color-interpolation-filters="sRGB">
<feFlood flood-opacity="0" result="BackgroundImageFix"/>
<feBlend mode="normal" in="SourceGraphic" in2="BackgroundImageFix" result="shape"/>
<feGaussianBlur stdDeviation="0.25" result="effect1_foregroundBlur_159_1311"/>
</filter>
<filter id="filter1_f_159_1311" x="0.499488" y="0.499512" width="498.001" height="355.001" filterUnits="userSpaceOnUse" color-interpolation-filters="sRGB">
<feFlood flood-opacity="0" result="BackgroundImageFix"/>
<feBlend mode="normal" in="SourceGraphic" in2="BackgroundImageFix" result="shape"/>
<feGaussianBlur stdDeviation="0.25" result="effect1_foregroundBlur_159_1311"/>
</filter>
<linearGradient id="paint0_linear_159_1311" x1="305.213" y1="184.754" x2="204.044" y2="33.4274" gradientUnits="userSpaceOnUse">
<stop offset="0.798" stop-color="#00AEEF"/>
<stop offset="0.977" stop-color="#FFBCCE"/>
</linearGradient>
<linearGradient id="paint1_linear_159_1311" x1="248.232" y1="82.3578" x2="230.259" y2="80.0566" gradientUnits="userSpaceOnUse">
<stop offset="0.15" stop-color="white"/>
<stop offset="0.62" stop-color="white" stop-opacity="0.6"/>
<stop offset="1" stop-color="white" stop-opacity="0"/>
</linearGradient>
<linearGradient id="paint2_linear_159_1311" x1="231.7" y1="103.586" x2="236.473" y2="77.1902" gradientUnits="userSpaceOnUse">
<stop offset="0.15" stop-color="white"/>
<stop offset="0.62" stop-color="white" stop-opacity="0.6"/>
<stop offset="1" stop-color="white" stop-opacity="0"/>
</linearGradient>
<linearGradient id="paint3_linear_159_1311" x1="329" y1="171.992" x2="421.29" y2="171.992" gradientUnits="userSpaceOnUse">
<stop stop-color="#00AEEF"/>
</linearGradient>
<clipPath id="clip0_159_1311">
<rect width="92.2899" height="91.3761" fill="white" transform="translate(77 132)"/>
</clipPath>
<clipPath id="clip1_159_1311">
<rect width="92.2899" height="92.2899" fill="white" transform="translate(329 132)"/>
</clipPath>
<clipPath id="clip2_159_1311">
<rect width="92.2899" height="92.2899" fill="white" transform="translate(204 226)"/>
</clipPath>
</defs>
</svg>
