<svg width="126" height="46" viewBox="0 0 126 46" fill="none" xmlns="http://www.w3.org/2000/svg">
<g clip-path="url(#clip0_159_1397)">
<rect width="126" height="46" fill="white"/>
<path d="M77.8495 12C74.7125 12 71.9788 13.3064 70.2038 15.473C68.4288 17.6396 67.5799 20.5421 67.5799 23.7316C67.5799 26.9211 68.4287 29.8236 70.2038 31.9903C71.9789 34.157 74.7125 35.4633 77.8495 35.4633C80.9864 35.4633 83.7201 34.1569 85.4951 31.9903C87.2701 29.8237 88.119 26.9211 88.119 23.7316C88.119 20.5421 87.2702 17.6397 85.4951 15.473C83.72 13.3063 80.9864 12 77.8495 12ZM115.878 12.3036C115.875 12.3038 115.871 12.3039 115.867 12.3041C115.865 12.3041 115.863 12.3041 115.861 12.3041C115.853 12.3047 115.845 12.3054 115.837 12.3061C115.408 12.3178 114.994 12.4679 114.657 12.7342C114.32 13.0005 114.077 13.3687 113.966 13.7841L106.344 32.3019C106.24 32.5452 106.185 32.8067 106.183 33.0713C106.181 33.3359 106.231 33.5984 106.331 33.8434C106.431 34.0884 106.578 34.3111 106.764 34.4986C106.951 34.6861 107.172 34.8346 107.417 34.9354C107.661 35.0363 107.922 35.0876 108.186 35.0863C108.451 35.085 108.712 35.0311 108.955 34.9278C109.198 34.8244 109.418 34.6737 109.603 34.4844C109.787 34.2951 109.932 34.0709 110.03 33.8249L111.615 29.9722H120.185L120.314 30.2868L121.77 33.8248C121.868 34.0708 122.013 34.295 122.197 34.4843C122.382 34.6736 122.602 34.8243 122.845 34.9276C123.088 35.031 123.349 35.0848 123.613 35.0862C123.877 35.0875 124.139 35.0362 124.383 34.9353C124.627 34.8344 124.849 34.6859 125.035 34.4985C125.222 34.311 125.369 34.0883 125.469 33.8433C125.569 33.5983 125.619 33.3358 125.617 33.0712C125.614 32.8066 125.56 32.545 125.456 32.3018L123.999 28.7638L117.829 13.772C117.714 13.3543 117.467 12.9855 117.125 12.7209C116.782 12.4564 116.363 12.3106 115.931 12.3055C115.914 12.3046 115.896 12.3039 115.879 12.3034L115.878 12.3036ZM63.5905 12.3366C63.233 12.3323 62.8809 12.4244 62.5711 12.6033C62.2613 12.7822 62.0052 13.0413 61.8297 13.3534L56.7777 22.0477L51.7299 13.3598C51.5493 13.0387 51.2836 12.7739 50.9622 12.5947C50.6408 12.4155 50.2762 12.3289 49.9087 12.3445C49.5632 12.3592 49.2276 12.4638 48.9346 12.6478C48.6417 12.8318 48.4015 13.089 48.2378 13.3942C48.074 13.6993 47.9923 14.0419 48.0006 14.3883C48.0089 14.7347 48.1069 15.0729 48.2851 15.3699L54.7855 26.5576V33.1443C54.7841 33.6651 54.9858 34.1659 55.3475 34.5399C55.7092 34.9139 56.2024 35.1315 56.7219 35.1463C57.2414 35.1612 57.7462 34.9722 58.1287 34.6195C58.5111 34.2668 58.741 33.7784 58.7693 33.2583C58.7721 33.2183 58.7738 33.1783 58.7743 33.1383V26.5511L65.2746 15.3634C65.4554 15.062 65.5536 14.7182 65.5594 14.3667C65.5651 14.0151 65.4782 13.6683 65.3073 13.3612C65.1365 13.0541 64.8878 12.7976 64.5864 12.6177C64.2849 12.4378 63.9413 12.3409 63.5905 12.3366ZM91.5743 12.3891C91.3102 12.3853 91.0479 12.4342 90.8028 12.5329C90.5576 12.6316 90.3345 12.7781 90.1464 12.9639C89.9582 13.1498 89.8088 13.3713 89.7069 13.6155C89.6049 13.8597 89.5524 14.1218 89.5524 14.3866C89.5524 14.6513 89.6049 14.9134 89.7069 15.1576C89.8088 15.4018 89.9582 15.6233 90.1464 15.8092C90.3345 15.995 90.5576 16.1416 90.8028 16.2402C91.0479 16.3389 91.3102 16.3878 91.5743 16.384H96.2678L96.2857 33.0099C96.2822 33.2746 96.3312 33.5373 96.43 33.7829C96.5287 34.0285 96.6751 34.2519 96.8608 34.4402C97.0464 34.6286 97.2676 34.7781 97.5114 34.88C97.7552 34.9819 98.0168 35.0343 98.2809 35.034C98.5451 35.0338 98.8066 34.9809 99.0502 34.8785C99.2938 34.776 99.5146 34.6261 99.6999 34.4374C99.8852 34.2487 100.031 34.0249 100.129 33.7792C100.228 33.5334 100.276 33.2706 100.272 33.0059L100.254 16.3841H105.016C105.28 16.3879 105.542 16.339 105.787 16.2403C106.032 16.1417 106.255 15.9951 106.444 15.8093C106.632 15.6234 106.781 15.402 106.883 15.1577C106.985 14.9135 107.037 14.6514 107.037 14.3867C107.037 14.1219 106.985 13.8598 106.883 13.6156C106.781 13.3714 106.632 13.1499 106.444 12.964C106.255 12.7782 106.032 12.6316 105.787 12.533C105.542 12.4343 105.28 12.3854 105.016 12.3892L91.5743 12.3891ZM77.8487 15.9947C79.9569 15.9947 81.3615 16.7237 82.4133 18.0079C83.4653 19.2921 84.1317 21.2563 84.1317 23.7318C84.1317 26.2074 83.4653 28.1715 82.4133 29.4558C81.3614 30.7399 79.9568 31.4689 77.8487 31.4689C75.7405 31.4689 74.3358 30.7399 73.284 29.4558C72.2321 28.1716 71.5657 26.2074 71.5657 23.7318C71.5657 21.2563 72.2321 19.2921 73.284 18.0079C74.336 16.7237 75.7405 15.9947 77.8487 15.9947ZM115.901 19.5615L118.541 25.9776H113.26L115.901 19.5615Z" fill="#00AEEF"/>
<path d="M23.9192 15.9218C26.4437 13.3501 28.0021 9.78232 28 5.88176V3.12886C28 1.40092 26.6027 0.000137329 24.8784 0.000137329C23.1509 0.000137329 21.7547 1.40092 21.7547 3.12886V5.88176C21.7538 8.10796 20.8764 10.0883 19.4627 11.5347C18.0435 12.9771 16.1342 13.8474 14 13.8483C11.8646 13.8474 9.95765 12.9771 8.5364 11.5347C7.12453 10.0883 6.24646 8.10796 6.24646 5.88176V3.12886C6.24646 1.40092 4.84796 0.000137329 3.1237 0.000137329C1.39946 0.000137329 6.61398e-07 1.40092 6.61398e-07 3.12886V5.88176C-0.00110163 9.78232 1.55713 13.3501 4.08058 15.9218C5.90053 17.7839 8.25074 19.1414 10.8763 19.7513V26.3385C8.25074 26.9482 5.90053 28.3069 4.08058 30.17C1.55704 32.7417 -0.00117199 36.3071 6.61398e-07 40.2102V42.962C6.61398e-07 44.6888 1.39939 46.09 3.1237 46.09C4.84786 46.09 6.24646 44.6887 6.24646 42.962V40.2102C6.24646 37.9838 7.12453 36.0011 8.5364 34.5561C9.95765 33.1133 11.8646 32.2434 14 32.2413C16.1342 32.2434 18.0435 33.1133 19.4627 34.5561C20.8764 36.0011 21.7538 37.9838 21.7547 40.2102V42.962C21.7547 44.6888 23.1509 46.09 24.8784 46.09C26.6027 46.09 28 44.6887 28 42.962V40.2102C28.0021 36.3071 26.4437 32.7417 23.9192 30.17C22.0995 28.3069 19.7493 26.9482 17.1237 26.3385V19.7513C19.7493 19.1414 22.0995 17.7839 23.9192 15.9218Z" fill="#00AEEF"/>
<path d="M14.0009 45.4312C16.9877 45.4312 19.4085 43.0075 19.4085 40.0132C19.4085 37.0192 16.9877 34.5932 14.0009 34.5932C11.0142 34.5932 8.59338 37.0192 8.59338 40.0132C8.59338 43.0075 11.0142 45.4312 14.0009 45.4312Z" fill="#00AEEF"/>
</g>
<defs>
<clipPath id="clip0_159_1397">
<rect width="126" height="46" fill="white"/>
</clipPath>
</defs>
</svg>
